# xmcd
#
# Track frame offsets:
# 150
# 11917
# 23887
# 34350
# 44935
# 60490
# 72815
# 84192
# 96177
# 114450
# 126035
#
# Disc length: 1902 seconds
#
#
# Revision: 0
# Processed by: cddbd v1.4PL0 Copyright (c) Steve Scherf et al.
# Submitted via: FreeRIP 2.00 
#
DISCID=92076c0b
DTITLE=Eric Stevenson - Dead Horse Town
DYEAR=1999
DGENRE=Country
TTITLE0=Never Meant To Be
TTITLE1=Beyond These Walls
TTITLE2=John Blyde
TTITLE3=Cancer
TTITLE4=Blind
TTITLE5=Ossipee
TTITLE6=Pauline
TTITLE7=Angels And Devils
TTITLE8=Any Other Way
TTITLE9=Somebody New
TTITLE10=Steelbelted
EXTD=Hank Crane Recordings
EXTT0=
EXTT1=
EXTT2=
EXTT3=
EXTT4=
EXTT5=
EXTT6=
EXTT7=
EXTT8=
EXTT9=
EXTT10=
PLAYORDER=
